<svg width="24" height="24" viewBox="0 0 24 24" fill="none" xmlns="http://www.w3.org/2000/svg">
<path d="M9.79999 9.80201C9.04499 10.555 8.67799 11.278 8.67799 12.01C8.67799 12.967 9.31799 13.716 9.79999 14.197C10.54 14.936 11.27 15.305 12 15.305C12.73 15.305 13.46 14.935 14.2 14.197C14.955 13.444 15.322 12.721 15.322 11.989C15.322 11.032 14.682 10.283 14.2 9.80201C12.72 8.32401 11.28 8.32401 9.79999 9.80201ZM13.494 13.49C12.243 14.738 11.452 14.434 10.506 13.49C9.94099 12.926 9.67799 12.456 9.67799 12.011C9.67799 11.557 9.94899 11.067 10.506 10.511C11.089 9.92901 11.571 9.68501 12.017 9.68501C12.528 9.68501 12.989 10.007 13.495 10.511C14.06 11.075 14.323 11.545 14.323 11.99C14.323 12.444 14.051 12.934 13.494 13.49Z" fill="black"/>
<path d="M9.79999 9.80201C9.04499 10.555 8.67799 11.278 8.67799 12.01C8.67799 12.967 9.31799 13.716 9.79999 14.197C10.54 14.936 11.27 15.305 12 15.305C12.73 15.305 13.46 14.935 14.2 14.197C14.955 13.444 15.322 12.721 15.322 11.989C15.322 11.032 14.682 10.283 14.2 9.80201C12.72 8.32401 11.28 8.32401 9.79999 9.80201ZM13.494 13.49C12.243 14.738 11.452 14.434 10.506 13.49C9.94099 12.926 9.67799 12.456 9.67799 12.011C9.67799 11.557 9.94899 11.067 10.506 10.511C11.089 9.92901 11.571 9.68501 12.017 9.68501C12.528 9.68501 12.989 10.007 13.495 10.511C14.06 11.075 14.323 11.545 14.323 11.99C14.323 12.444 14.051 12.934 13.494 13.49Z" fill="black"/>
<path d="M23.019 11.948C23.027 10.353 22.202 9.46701 20.498 9.24801C20.31 8.85401 20.081 8.46101 19.804 8.06001C21.009 6.60401 21.014 5.36601 19.83 4.18401C18.647 3.00301 17.405 3.00901 15.946 4.21301C15.545 3.93901 15.152 3.71201 14.758 3.52501C14.541 1.81901 13.624 1.00101 12.053 1.00101C10.451 1.00901 9.558 1.85001 9.328 3.57001C8.936 3.75901 8.537 3.99101 8.138 4.26101C6.687 3.06401 5.444 3.06701 4.248 4.26101C3.07 5.43601 3.068 6.70901 4.247 8.14301C3.974 8.54301 3.741 8.94101 3.551 9.33201C1.832 9.56101 0.990998 10.454 0.982998 12.053C0.974998 13.648 1.8 14.534 3.504 14.753C3.692 15.147 3.921 15.54 4.198 15.941C2.993 17.397 2.988 18.635 4.172 19.817C5.356 20.999 6.597 20.993 8.056 19.788C8.457 20.062 8.85 20.289 9.244 20.476C9.46 22.173 10.357 23 11.926 23C13.531 23 14.445 22.151 14.675 20.431C15.067 20.242 15.466 20.01 15.865 19.74C17.316 20.937 18.559 20.933 19.755 19.74C20.933 18.565 20.935 17.292 19.756 15.858C20.029 15.458 20.262 15.06 20.452 14.669C22.171 14.44 23.012 13.547 23.02 11.948H23.019ZM19.659 14.001C19.432 14.516 19.115 15.052 18.717 15.595C18.575 15.788 18.59 16.054 18.753 16.23C20.126 17.717 19.651 18.43 19.048 19.032C18.418 19.66 17.727 20.11 16.236 18.737C16.061 18.575 15.796 18.561 15.602 18.701C15.061 19.096 14.525 19.411 14.007 19.638C13.84 19.711 13.725 19.87 13.71 20.053C13.571 21.668 12.931 21.995 11.944 22C10.936 21.973 10.335 21.696 10.21 20.1C10.195 19.914 10.079 19.752 9.908 19.679C9.387 19.457 8.867 19.153 8.32 18.75C8.231 18.685 8.127 18.653 8.024 18.653C7.902 18.653 7.781 18.697 7.686 18.785C6.183 20.168 5.475 19.704 4.879 19.109C4.284 18.515 3.819 17.81 5.202 16.312C5.365 16.135 5.38 15.868 5.237 15.675C4.837 15.134 4.521 14.6 4.3 14.087C4.227 13.917 4.066 13.801 3.881 13.786C2.294 13.66 1.978 13.031 1.983 12.057C1.988 11.073 2.316 10.435 3.929 10.296C4.111 10.28 4.27 10.167 4.344 10C4.571 9.48501 4.888 8.94901 5.286 8.40601C5.428 8.21301 5.413 7.94701 5.25 7.77101C3.877 6.28401 4.352 5.57101 4.955 4.96901C5.561 4.36501 6.276 3.88901 7.767 5.26401C7.943 5.42701 8.208 5.44201 8.401 5.30001C8.942 4.90501 9.478 4.59001 9.996 4.36301C10.163 4.29001 10.278 4.13101 10.293 3.94801C10.432 2.33301 11.072 2.00601 12.059 2.00101C13.049 1.97401 13.667 2.30501 13.793 3.90101C13.808 4.08701 13.924 4.24901 14.095 4.32201C14.616 4.54401 15.136 4.84801 15.683 5.25101C15.876 5.39301 16.141 5.37801 16.318 5.21601C17.822 3.83401 18.53 4.29801 19.125 4.89201C19.72 5.48601 20.185 6.19101 18.802 7.68901C18.639 7.86601 18.624 8.13301 18.767 8.32601C19.167 8.86701 19.483 9.40101 19.704 9.91401C19.777 10.084 19.938 10.2 20.123 10.215C21.71 10.341 22.026 10.97 22.021 11.944C22.016 12.928 21.688 13.566 20.075 13.705C19.893 13.721 19.733 13.834 19.659 14.001Z" fill="black"/>
</svg>
