<svg width="30" height="30" viewBox="0 0 30 30" fill="none" xmlns="http://www.w3.org/2000/svg">
<path fill-rule="evenodd" clip-rule="evenodd" d="M15 8.1828C15.9732 6.1812 18.0264 4.8 20.4 4.8C23.712 4.8 26.4 7.488 26.4 10.8C26.4 14.3016 24.6192 17.5128 22.458 20.094C19.2828 23.8872 15.3132 26.3124 15.3132 26.3124C15.1212 26.4288 14.8788 26.4288 14.6868 26.3124C14.6868 26.3124 10.7172 23.8872 7.54201 20.094C5.38081 17.5128 3.60001 14.3016 3.60001 10.8C3.60001 7.488 6.28801 4.8 9.60001 4.8C11.9736 4.8 14.0268 6.1812 15 8.1828ZM20.4 9C21.3936 9 22.2 9.8064 22.2 10.8C22.2 11.1312 22.4688 11.4 22.8 11.4C23.1312 11.4 23.4 11.1312 23.4 10.8C23.4 9.144 22.056 7.8 20.4 7.8C20.0688 7.8 19.8 8.0688 19.8 8.4C19.8 8.7312 20.0688 9 20.4 9Z" fill="black"/>
</svg>
