<svg width="30" height="30" viewBox="0 0 30 30" fill="none" xmlns="http://www.w3.org/2000/svg">
<g clip-path="url(#clip0_19_247)">
<path d="M10.1324 10.42C10.8299 10.9763 11.6649 11.255 12.4999 11.255C13.3349 11.255 14.1699 10.9762 14.8662 10.4212C16.3674 9.225 18.7499 6.42375 18.7499 4C18.7499 1.79375 17.0674 0 14.9999 0C14.0599 0 13.1749 0.38875 12.4999 1.0075C11.8249 0.38875 10.9399 0 9.99995 0C7.93245 0 6.24995 1.795 6.24995 4C6.24995 6.4225 8.63245 9.225 10.1324 10.42ZM9.99995 2.5C10.6924 2.5 11.2499 3.18375 11.2499 3.75C11.2499 4.44125 11.8099 5 12.4999 5C13.1899 5 13.7499 4.44125 13.7499 3.75C13.7499 3.18375 14.3074 2.5 14.9999 2.5C15.6924 2.5 16.2499 3.1725 16.2499 4C16.2499 5.215 14.6974 7.36 13.3074 8.46625C12.8312 8.845 12.1674 8.84625 11.6912 8.46625C10.3024 7.36 8.74995 5.215 8.74995 4.00125C8.74995 3.17375 9.3112 2.5 9.99995 2.5ZM24.9999 17.5H24.8562C24.8925 17.215 24.9499 16.9525 24.9787 16.66C25.0849 15.5913 24.7362 14.5237 24.0187 13.7312C23.3125 12.9512 22.305 12.5038 21.2537 12.5038L3.7462 12.5C2.69495 12.5 1.6862 12.9475 0.97995 13.7275C0.26245 14.52 -0.0875501 15.5875 0.0186999 16.6562C0.39995 20.4812 1.4062 23.6712 3.00995 26.1375C4.5812 28.5562 7.2962 30 10.2699 30H14.73C17.655 30 20.3237 28.5975 21.9062 26.25H24.9999C27.7099 26.25 29.9999 24.0412 29.9999 21.4287C29.9999 19.0062 28.0837 17.5 24.9999 17.5ZM14.73 27.5H10.2699C8.1462 27.5 6.21495 26.4825 5.1062 24.775C3.72245 22.6462 2.84745 19.8312 2.5062 16.4087C2.4687 16.035 2.58495 15.6788 2.83245 15.405C3.0687 15.1438 3.3937 15 3.74495 15L21.2525 15.0038C21.6037 15.0038 21.9287 15.1475 22.1637 15.4087C22.4112 15.6825 22.5275 16.0387 22.49 16.4112C22.1487 19.8337 21.275 22.6487 19.8912 24.7762C18.7812 26.4812 16.8512 27.5 14.7274 27.5H14.73ZM24.9999 23.75H23.2349C23.7287 22.6088 24.1237 21.3537 24.4262 20H24.9999C26.6587 20 27.4999 20.4812 27.4999 21.4287C27.4999 22.665 26.3312 23.75 24.9999 23.75Z" fill="black"/>
</g>
<defs>
<clipPath id="clip0_19_247">
<rect width="30" height="30" fill="white"/>
</clipPath>
</defs>
</svg>
