<svg width="30" height="30" viewBox="0 0 30 30" fill="none" xmlns="http://www.w3.org/2000/svg">
<g clip-path="url(#clip0_22_253)">
<path d="M6.875 21.25C7.91053 21.25 8.75 20.4105 8.75 19.375C8.75 18.3395 7.91053 17.5 6.875 17.5C5.83947 17.5 5 18.3395 5 19.375C5 20.4105 5.83947 21.25 6.875 21.25Z" fill="black"/>
<path d="M23.75 3.75H6.25C4.59301 3.75198 3.00445 4.4111 1.83277 5.58277C0.661102 6.75445 0.00198482 8.34301 0 10L0 20C0.00198482 21.657 0.661102 23.2456 1.83277 24.4172C3.00445 25.5889 4.59301 26.248 6.25 26.25H23.75C25.407 26.248 26.9956 25.5889 28.1672 24.4172C29.3389 23.2456 29.998 21.657 30 20V10C29.998 8.34301 29.3389 6.75445 28.1672 5.58277C26.9956 4.4111 25.407 3.75198 23.75 3.75ZM6.25 6.25H23.75C24.7446 6.25 25.6984 6.64509 26.4017 7.34835C27.1049 8.05161 27.5 9.00544 27.5 10H2.5C2.5 9.00544 2.89509 8.05161 3.59835 7.34835C4.30161 6.64509 5.25544 6.25 6.25 6.25ZM23.75 23.75H6.25C5.25544 23.75 4.30161 23.3549 3.59835 22.6517C2.89509 21.9484 2.5 20.9946 2.5 20V12.5H27.5V20C27.5 20.9946 27.1049 21.9484 26.4017 22.6517C25.6984 23.3549 24.7446 23.75 23.75 23.75Z" fill="black"/>
</g>
<defs>
<clipPath id="clip0_22_253">
<rect width="30" height="30" fill="white"/>
</clipPath>
</defs>
</svg>
