<svg width="30" height="30" viewBox="0 0 30 30" fill="none" xmlns="http://www.w3.org/2000/svg">
<path d="M28.75 20.9438C28.75 17.7925 27.5413 16.0788 25.9013 15.1575C25.7663 6.18751 22.3887 2.17876 15 2.17876C7.61125 2.17876 4.225 6.19626 4.0975 15.19C2.5275 16.1025 1.25 17.7963 1.25 20.9438C1.25 27.0563 5.7975 27.7625 9.21875 27.7625C9.7575 27.7625 10.235 27.4175 10.405 26.905C11.68 23.0613 11.68 18.825 10.405 14.9813C10.235 14.47 9.7575 14.1238 9.21875 14.1238C8.62625 14.1238 7.67 14.1238 6.6225 14.3088C6.95875 6.35876 10.225 4.67626 15 4.67626C19.775 4.67626 23.0425 6.36001 23.3775 14.3138C22.5 14.165 21.6075 14.1238 20.7812 14.1238C20.2425 14.1238 19.765 14.4688 19.595 14.9813C18.4937 18.3025 18.345 21.915 19.1463 25.3163C17.8163 25.3388 16.5425 25.3 15.3412 25.2025C14.64 25.1513 14.05 25.66 13.995 26.3488C13.94 27.0363 14.4525 27.6388 15.14 27.695C16.1888 27.7788 17.2875 27.8225 18.4263 27.8225C19.205 27.8225 20.0025 27.8025 20.815 27.7625C22.8188 27.7625 28.75 27.725 28.75 20.9438ZM8.29625 25.2413C4.96 25.0688 3.75 23.8775 3.75 20.9438C3.75 18.01 4.96 16.8188 8.29625 16.6463C9.05125 19.4475 9.05125 22.4388 8.29625 25.24V25.2413ZM21.7038 25.2413C20.9488 22.44 20.9488 19.4475 21.7038 16.6475C25.04 16.82 26.25 18.0113 26.25 20.945C26.25 23.8788 25.04 25.0688 21.7038 25.2413Z" fill="black"/>
</svg>
