<svg width="30" height="30" viewBox="0 0 30 30" fill="none" xmlns="http://www.w3.org/2000/svg">
<g clip-path="url(#clip0_19_236)">
<path d="M25 12.5H24.8563C25.0297 11.9291 25.0689 11.3259 24.9709 10.7373C24.873 10.1488 24.6404 9.59082 24.2914 9.1069C23.9424 8.62299 23.4863 8.22621 22.9588 7.94749C22.4312 7.66876 21.8464 7.51562 21.25 7.5H3.75C-3.06375 7.965 1.25 18.3138 3.01375 21.14C3.8047 22.3382 4.88315 23.3191 6.15066 23.9934C7.41817 24.6677 8.83437 25.0137 10.27 25H14.7287C16.1412 25.0129 17.535 24.6775 18.7869 24.0234C20.0388 23.3693 21.1102 22.4168 21.9062 21.25H25C31.0175 21.1337 32.1987 12.2775 25 12.5ZM14.7287 22.5H10.27C9.25022 22.5138 8.24327 22.2716 7.3412 21.7958C6.43913 21.32 5.67073 20.6257 5.10625 19.7763C4.42625 19.125 0.6175 10 3.75 10H21.25C21.422 9.99944 21.5921 10.0354 21.7492 10.1054C21.9063 10.1754 22.0467 10.278 22.1613 10.4062C22.2831 10.5405 22.3752 10.699 22.4314 10.8713C22.4876 11.0437 22.5067 11.226 22.4875 11.4062C21.7837 16.73 20.46 22.2638 14.7287 22.5ZM25 18.75H23.235C23.7489 17.54 24.1481 16.2845 24.4275 15C25.9387 14.8987 27.61 15.27 27.5 16.4287C27.4594 17.0621 27.1776 17.6557 26.7125 18.0875C26.2475 18.5193 25.6346 18.7564 25 18.75ZM11.2812 3.75V1.25C11.2812 0.918479 11.4129 0.600537 11.6474 0.366117C11.8818 0.131696 12.1997 0 12.5312 0C12.8628 0 13.1807 0.131696 13.4151 0.366117C13.6496 0.600537 13.7812 0.918479 13.7812 1.25V3.75C13.7812 4.08152 13.6496 4.39946 13.4151 4.63388C13.1807 4.8683 12.8628 5 12.5312 5C12.1997 5 11.8818 4.8683 11.6474 4.63388C11.4129 4.39946 11.2812 4.08152 11.2812 3.75ZM16.2812 3.75V1.25C16.2812 0.918479 16.4129 0.600537 16.6474 0.366117C16.8818 0.131696 17.1997 0 17.5312 0C17.8628 0 18.1807 0.131696 18.4151 0.366117C18.6496 0.600537 18.7812 0.918479 18.7812 1.25V3.75C18.7812 4.08152 18.6496 4.39946 18.4151 4.63388C18.1807 4.8683 17.8628 5 17.5312 5C17.1997 5 16.8818 4.8683 16.6474 4.63388C16.4129 4.39946 16.2812 4.08152 16.2812 3.75ZM6.28125 3.75V1.25C6.28125 0.918479 6.41295 0.600537 6.64737 0.366117C6.88179 0.131696 7.19973 0 7.53125 0C7.86277 0 8.18071 0.131696 8.41513 0.366117C8.64955 0.600537 8.78125 0.918479 8.78125 1.25V3.75C8.78125 4.08152 8.64955 4.39946 8.41513 4.63388C8.18071 4.8683 7.86277 5 7.53125 5C7.19973 5 6.88179 4.8683 6.64737 4.63388C6.41295 4.39946 6.28125 4.08152 6.28125 3.75ZM25 28.75C25 29.0815 24.8683 29.3995 24.6339 29.6339C24.3995 29.8683 24.0815 30 23.75 30H1.25C0.918479 30 0.600537 29.8683 0.366117 29.6339C0.131696 29.3995 0 29.0815 0 28.75C0 28.4185 0.131696 28.1005 0.366117 27.8661C0.600537 27.6317 0.918479 27.5 1.25 27.5H23.75C24.0815 27.5 24.3995 27.6317 24.6339 27.8661C24.8683 28.1005 25 28.4185 25 28.75Z" fill="black"/>
</g>
<defs>
<clipPath id="clip0_19_236">
<rect width="30" height="30" fill="white"/>
</clipPath>
</defs>
</svg>
