<svg width="30" height="30" viewBox="0 0 30 30" fill="none" xmlns="http://www.w3.org/2000/svg">
<g clip-path="url(#clip0_23_272)">
<path d="M15 30C12.0333 30 9.13319 29.1203 6.66645 27.4721C4.19972 25.8238 2.27713 23.4812 1.14181 20.7403C0.00649929 17.9994 -0.290551 14.9834 0.288228 12.0737C0.867006 9.16394 2.29562 6.49119 4.39341 4.39341C6.49119 2.29562 9.16394 0.867006 12.0737 0.288228C14.9834 -0.290551 17.9994 0.00649929 20.7403 1.14181C23.4812 2.27713 25.8238 4.19972 27.4721 6.66645C29.1203 9.13319 30 12.0333 30 15C29.9957 18.9769 28.414 22.7897 25.6019 25.6019C22.7897 28.414 18.9769 29.9957 15 30ZM15 2.50001C12.5277 2.50001 10.111 3.23312 8.05538 4.60664C5.99976 5.98015 4.39761 7.93239 3.45151 10.2165C2.50542 12.5005 2.25788 15.0139 2.74019 17.4386C3.22251 19.8634 4.41302 22.0907 6.16117 23.8388C7.90933 25.587 10.1366 26.7775 12.5614 27.2598C14.9861 27.7421 17.4995 27.4946 19.7836 26.5485C22.0676 25.6024 24.0199 24.0002 25.3934 21.9446C26.7669 19.889 27.5 17.4723 27.5 15C27.4964 11.6859 26.1782 8.50861 23.8348 6.16519C21.4914 3.82178 18.3141 2.50365 15 2.50001Z" fill="black"/>
<path d="M17.5 23.75H15V15H12.5V12.5H15C15.663 12.5 16.2989 12.7634 16.7678 13.2322C17.2366 13.7011 17.5 14.337 17.5 15V23.75Z" fill="black"/>
<path d="M15 10C16.0355 10 16.875 9.16053 16.875 8.125C16.875 7.08947 16.0355 6.25 15 6.25C13.9645 6.25 13.125 7.08947 13.125 8.125C13.125 9.16053 13.9645 10 15 10Z" fill="black"/>
</g>
<defs>
<clipPath id="clip0_23_272">
<rect width="30" height="30" fill="white"/>
</clipPath>
</defs>
</svg>
