<svg width="30" height="30" viewBox="0 0 30 30" fill="none" xmlns="http://www.w3.org/2000/svg">
<g clip-path="url(#clip0_23_266)">
<path d="M9.38502 11.495C9.25127 10.915 8.88127 10.3875 8.33252 10.1575C8.07502 10.05 7.81627 10 7.56627 10C6.70502 10 5.95752 10.5938 5.76252 11.4338L3.91877 19.2488C3.82877 19.6325 4.11877 20 4.51377 20C4.79627 20 5.04127 19.8062 5.10752 19.5312L5.59377 17.5H9.48752L9.95502 19.5263C10.0188 19.8038 10.2663 20 10.55 20H10.565C10.9575 20 11.2475 19.635 11.16 19.2525L9.38252 11.495H9.38502ZM5.89377 16.25L6.98002 11.7163C7.04377 11.4425 7.28502 11.25 7.56627 11.25C7.65752 11.25 7.75252 11.27 7.84877 11.3112C7.98752 11.3687 8.11502 11.5575 8.16502 11.775L9.19877 16.25H5.89377ZM24.4 5H5.65002C2.54752 5 0.0250244 7.52375 0.0250244 10.625V19.375C0.0250244 22.4762 2.54877 25 5.65002 25H24.4C27.5013 25 30.025 22.4762 30.025 19.375V10.625C30.025 7.52375 27.5013 5 24.4 5ZM1.27502 19.375V10.625C1.27502 8.2125 3.23752 6.25 5.65002 6.25H14.4V23.75H5.65002C3.23752 23.75 1.27502 21.7875 1.27502 19.375ZM28.775 19.375C28.775 21.7875 26.8125 23.75 24.4 23.75H15.65V6.25H24.4C26.8125 6.25 28.775 8.2125 28.775 10.625V19.375ZM27.525 11.8638V11.8862C27.525 12.225 27.25 12.5 26.9113 12.5H26.2288C26.095 13.6462 25.5825 16.13 23.6225 17.9262C24.4988 18.3687 25.59 18.67 26.945 18.7363C27.27 18.7525 27.525 19.0225 27.525 19.3488V19.3712C27.525 19.7225 27.2313 20.0025 26.88 19.985C25.0438 19.8962 23.6238 19.425 22.525 18.7525C21.4263 19.425 20.0063 19.8962 18.17 19.985C17.82 20.0025 17.525 19.7225 17.525 19.3712V19.3488C17.525 19.0238 17.78 18.7525 18.105 18.7363C19.4613 18.6688 20.5513 18.3675 21.4288 17.9262C20.7538 17.3075 20.25 16.6075 19.875 15.9088C19.655 15.4975 19.9488 15 20.415 15C20.6413 15 20.8463 15.125 20.955 15.3237C21.3188 15.9912 21.8238 16.6562 22.5263 17.2225C24.3688 15.7412 24.8538 13.5663 24.9813 12.5013H18.14C17.8013 12.5013 17.5263 12.2263 17.5263 11.8875V11.865C17.5263 11.5262 17.8013 11.2513 18.14 11.2513H21.9013V10.615C21.9013 10.2762 22.1763 10.0013 22.515 10.0013H22.5375C22.8763 10.0013 23.1513 10.2762 23.1513 10.615V11.2513H26.9125C27.2513 11.2513 27.5263 11.5262 27.5263 11.865L27.525 11.8638Z" fill="black"/>
</g>
<defs>
<clipPath id="clip0_23_266">
<rect width="30" height="30" fill="white"/>
</clipPath>
</defs>
</svg>
