<svg width="30" height="30" viewBox="0 0 30 30" fill="none" xmlns="http://www.w3.org/2000/svg">
<g clip-path="url(#clip0_19_249)">
<path d="M14.9475 30.01L14.0762 29.2631C12.8749 28.2573 2.38623 19.1989 2.38623 12.5729C2.38623 5.63548 8.01012 0.0115967 14.9475 0.0115967C21.8849 0.0115967 27.5088 5.63548 27.5088 12.5729C27.5088 19.1989 17.0201 28.2574 15.8238 29.2681L14.9475 30.01ZM14.9475 2.72771C9.51275 2.73386 5.10855 7.13806 5.1024 12.5728C5.1024 16.7354 11.5554 23.3851 14.9475 26.4286C18.3396 23.3839 24.7926 16.7304 24.7926 12.5728C24.7864 7.13806 20.3823 2.73392 14.9475 2.72771Z" fill="black"/>
<path d="M14.9475 17.552C12.1976 17.552 9.96832 15.3228 9.96832 12.5729C9.96832 9.82295 12.1976 7.59369 14.9475 7.59369C17.6974 7.59369 19.9267 9.82295 19.9267 12.5729C19.9267 15.3228 17.6975 17.552 14.9475 17.552ZM14.9475 10.0832C13.5725 10.0832 12.4579 11.1978 12.4579 12.5728C12.4579 13.9478 13.5725 15.0624 14.9475 15.0624C16.3225 15.0624 17.4371 13.9478 17.4371 12.5728C17.4371 11.1978 16.3225 10.0832 14.9475 10.0832Z" fill="black"/>
</g>
<defs>
<clipPath id="clip0_19_249">
<rect width="30" height="30" fill="white"/>
</clipPath>
</defs>
</svg>
