<svg width="30" height="30" viewBox="0 0 30 30" fill="none" xmlns="http://www.w3.org/2000/svg">
<g clip-path="url(#clip0_23_281)">
<path d="M2.5 26.25V3.75C2.5 3.41848 2.6317 3.10054 2.86612 2.86612C3.10054 2.6317 3.41848 2.5 3.75 2.5H10V0H3.75C2.75544 0 1.80161 0.395088 1.09835 1.09835C0.395088 1.80161 0 2.75544 0 3.75L0 26.25C0 27.2446 0.395088 28.1984 1.09835 28.9017C1.80161 29.6049 2.75544 30 3.75 30H10V27.5H3.75C3.41848 27.5 3.10054 27.3683 2.86612 27.1339C2.6317 26.8995 2.5 26.5815 2.5 26.25Z" fill="black"/>
<path d="M28.9038 12.3487L23.1713 6.61624L21.4038 8.38374L26.7338 13.7137L6.25 13.75V16.25L26.8038 16.2137L21.4013 21.6162L23.1688 23.3837L28.9013 17.6512C29.6046 16.9483 30 15.9949 30.0005 15.0005C30.0009 14.0061 29.6064 13.0523 28.9038 12.3487Z" fill="black"/>
</g>
<defs>
<clipPath id="clip0_23_281">
<rect width="30" height="30" fill="white"/>
</clipPath>
</defs>
</svg>
