<svg width="24" height="24" viewBox="0 0 24 24" fill="none" xmlns="http://www.w3.org/2000/svg">
<g clip-path="url(#clip0_23_260)">
<path d="M20 8C22.206 8 24 6.206 24 4C24 1.794 22.206 0 20 0C17.794 0 16 1.794 16 4C16 6.206 17.794 8 20 8ZM20 2C21.103 2 22 2.897 22 4C22 5.103 21.103 6 20 6C18.897 6 18 5.103 18 4C18 2.897 18.897 2 20 2ZM23.272 16.247L23.267 16.228V16.227L21.694 9.754C21.156 9.912 20.589 10.001 20 10.001C19.896 10.001 19.795 9.991 19.692 9.985L21.329 16.72C21.331 16.727 21.336 16.732 21.337 16.74H21.333C21.415 17.048 21.354 17.355 21.164 17.606C20.972 17.861 20.688 18.001 20.368 18.001H3.49302C3.18802 18.001 2.90402 17.864 2.71502 17.63C2.52302 17.39 2.45102 17.082 2.50802 16.818L4.86002 7.701C5.60602 4.345 8.54202 2.001 12 2.001C12.773 2.001 13.523 2.133 14.232 2.362C14.42 1.701 14.716 1.087 15.104 0.541C14.125 0.193 13.079 0.002 12 0.002C7.59802 0 3.85902 2.988 2.91602 7.233L0.564018 16.352C0.367018 17.242 0.582018 18.163 1.15502 18.88C1.72802 19.592 2.58102 20 3.49302 20H7.10102C7.56602 22.279 9.58502 24 12 24C14.415 24 16.434 22.279 16.899 20H20.369C21.316 20 22.186 19.567 22.759 18.814C23.315 18.081 23.498 17.154 23.273 16.264C23.272 16.258 23.273 16.253 23.273 16.247H23.272ZM12 22C10.698 22 9.59802 21.161 9.18402 20H14.815C14.401 21.161 13.301 22 11.999 22H12Z" fill="black"/>
</g>
<defs>
<clipPath id="clip0_23_260">
<rect width="24" height="24" fill="white"/>
</clipPath>
</defs>
</svg>
