<svg width="24" height="24" viewBox="0 0 24 24" fill="none" xmlns="http://www.w3.org/2000/svg">
<g clip-path="url(#clip0_26_300)">
<path d="M16.207 8.62101L12.414 12.414C12.036 12.792 11.534 13 11 13C10.466 13 9.964 12.792 9.586 12.414L7.293 10.121L8.707 8.707L11 11L14.793 7.207L16.207 8.62101ZM24 19.036H19V24.036L14.701 19.737C14.426 20.037 14.121 20.308 13.75 20.514C13.207 20.815 12.598 20.966 11.989 20.966C11.38 20.966 10.771 20.816 10.228 20.514C9.861 20.311 9.558 20.044 9.286 19.749L5 24.035V19.035H0L3.509 15.526C3.483 15.165 3.505 14.806 3.585 14.452C3.658 14.129 3.504 13.782 3.202 13.586C2.682 13.25 2.262 12.796 1.952 12.235C1.656 11.702 1.501 11.087 1.504 10.459C1.501 9.839 1.656 9.224 1.953 8.69C2.263 8.131 2.683 7.677 3.203 7.341C3.506 7.145 3.66 6.798 3.587 6.475C3.447 5.859 3.468 5.228 3.649 4.597C3.991 3.404 4.945 2.45 6.139 2.107C6.771 1.927 7.401 1.906 8.015 2.046C8.338 2.122 8.686 1.965 8.881 1.663C9.215 1.144 9.669 0.724004 10.23 0.413004C11.316 -0.189996 12.666 -0.189996 13.751 0.413004C14.312 0.724004 14.765 1.144 15.1 1.663C15.296 1.966 15.646 2.122 15.966 2.047C16.582 1.906 17.212 1.927 17.842 2.108C19.036 2.45 19.99 3.404 20.333 4.597C20.514 5.229 20.535 5.861 20.395 6.476C20.322 6.797 20.476 7.145 20.779 7.341C21.298 7.676 21.718 8.13 22.029 8.691C22.325 9.226 22.48 9.84001 22.477 10.468C22.48 11.087 22.325 11.701 22.029 12.236C21.718 12.798 21.298 13.252 20.779 13.586C20.476 13.782 20.322 14.13 20.395 14.452C20.474 14.799 20.496 15.151 20.473 15.505L24.003 19.035L24 19.036ZM16.407 16.931C16.69 16.996 16.988 16.985 17.289 16.897C17.817 16.746 18.257 16.307 18.409 15.779C18.495 15.476 18.507 15.179 18.442 14.897C18.184 13.757 18.686 12.556 19.692 11.907C19.93 11.753 20.128 11.538 20.277 11.268C20.407 11.032 20.476 10.755 20.475 10.469C20.476 10.174 20.408 9.89801 20.277 9.66101C20.128 9.39101 19.93 9.17701 19.692 9.02201C18.687 8.37401 18.184 7.172 18.442 6.034C18.506 5.75 18.495 5.453 18.408 5.15C18.257 4.623 17.817 4.184 17.289 4.032C16.986 3.946 16.69 3.934 16.406 3.998C15.27 4.255 14.067 3.755 13.417 2.748C13.263 2.51 13.048 2.312 12.778 2.163C12.299 1.896 11.677 1.896 11.196 2.163C10.926 2.312 10.712 2.509 10.558 2.748C9.908 3.754 8.707 4.255 7.569 3.998C7.286 3.933 6.99 3.945 6.685 4.032C6.158 4.183 5.719 4.622 5.568 5.15C5.481 5.453 5.47 5.751 5.534 6.034C5.793 7.172 5.291 8.373 4.284 9.023C4.045 9.177 3.848 9.39201 3.7 9.66101C3.569 9.89701 3.5 10.174 3.502 10.461C3.501 10.757 3.569 11.033 3.7 11.269C3.849 11.539 4.046 11.753 4.285 11.908C5.291 12.557 5.793 13.758 5.534 14.897C5.47 15.18 5.481 15.477 5.568 15.78C5.719 16.307 6.158 16.746 6.686 16.898C6.99 16.985 7.287 16.996 7.569 16.932C7.768 16.887 7.97 16.865 8.17 16.865C9.111 16.865 10.022 17.352 10.558 18.182C10.712 18.421 10.927 18.618 11.196 18.767C11.676 19.034 12.298 19.034 12.778 18.767C13.047 18.618 13.262 18.42 13.417 18.181C14.066 17.175 15.268 16.674 16.406 16.932L16.407 16.931Z" fill="black"/>
</g>
<defs>
<clipPath id="clip0_26_300">
<rect width="24" height="24" fill="white"/>
</clipPath>
</defs>
</svg>
