<svg width="30" height="30" viewBox="0 0 30 30" fill="none" xmlns="http://www.w3.org/2000/svg">
<g clip-path="url(#clip0_23_262)">
<path d="M14.935 30.0112L14.4925 29.815C14 29.5987 2.5 24.405 2.5 15V6.845C2.50044 6.06021 2.74848 5.29557 3.2088 4.65997C3.66912 4.02436 4.31825 3.5502 5.06375 3.305L15 0.0112495L24.9363 3.305C25.6818 3.5502 26.3309 4.02436 26.7912 4.65997C27.2515 5.29557 27.4996 6.06021 27.5 6.845V15C27.5 25.7212 15.89 29.6937 15.395 29.8587L14.935 30.0112ZM15 2.6325L5.855 5.665C5.60618 5.74627 5.38946 5.90419 5.23588 6.11616C5.0823 6.32812 4.99973 6.58325 5 6.845V15C5 21.8675 13.05 26.3225 15.0588 27.3262C17.0638 26.52 25 22.8287 25 15V6.845C25.0003 6.58325 24.9177 6.32812 24.7641 6.11616C24.6105 5.90419 24.3938 5.74627 24.145 5.665L15 2.6325Z" fill="black"/>
<path d="M13.8888 18.1775H13.8475C13.5311 18.1727 13.219 18.1037 12.93 17.9748C12.641 17.8459 12.3812 17.6597 12.1663 17.4275L9.28375 14.4275L11.085 12.7L13.89 15.625L20.3663 9.14875L22.1338 10.9163L15.5575 17.4925C15.3385 17.7114 15.0782 17.8846 14.7917 18.0022C14.5053 18.1197 14.1984 18.1793 13.8888 18.1775Z" fill="black"/>
</g>
<defs>
<clipPath id="clip0_23_262">
<rect width="30" height="30" fill="white"/>
</clipPath>
</defs>
</svg>
