<svg width="24" height="24" viewBox="0 0 24 24" fill="none" xmlns="http://www.w3.org/2000/svg">
<path d="M12.022 22.971C5.944 22.971 1 18.039 1 11.978C1 6.277 5.285 1.573 10.968 1.034C11.411 0.983003 11.813 1.237 11.983 1.638C12.154 2.038 12.045 2.504 11.714 2.787C10.62 3.725 10.088 5.347 10.088 7.744C10.088 12.872 12.452 13.902 16.267 13.902C18.729 13.902 20.307 13.387 21.235 12.282C21.515 11.946 21.984 11.835 22.386 12.002C22.79 12.171 23.037 12.583 22.995 13.019C22.46 18.692 17.742 22.97 12.022 22.97V22.971ZM8.78 3.576C5.362 4.872 3 8.15 3 11.977C3 16.936 7.048 20.97 12.022 20.97C15.854 20.97 19.137 18.625 20.443 15.23C19.027 15.809 17.482 15.903 16.266 15.903C12.755 15.903 8.087 15.057 8.087 7.745C8.087 6.092 8.317 4.709 8.78 3.576Z" fill="black"/>
</svg>
