<svg width="31" height="31" viewBox="0 0 31 31" fill="none" xmlns="http://www.w3.org/2000/svg">
<g clip-path="url(#clip0_19_238)">
<path d="M30.2483 19.9984L30.2463 19.8359C30.2339 19.2766 30.0362 18.7372 29.6841 18.3025C29.332 17.8677 28.8455 17.5622 28.301 17.4339C27.7707 17.2958 27.3004 16.9873 26.9626 16.5558C26.6247 16.1244 26.438 15.5938 26.4311 15.0459C26.4243 14.4979 26.5976 13.9629 26.9246 13.5231C27.2515 13.0833 27.7139 12.7631 28.2406 12.6118C28.7817 12.4698 29.2604 12.1522 29.6015 11.7088C29.9425 11.2653 30.1267 10.7211 30.125 10.1617L30.123 9.9992C30.1002 8.34237 29.4212 6.76219 28.235 5.6053C27.0487 4.4484 25.452 3.80925 23.7951 3.82803L3.79668 4.07872C2.8022 4.09119 1.85339 4.4982 1.159 5.21022C0.464612 5.92224 0.0815112 6.88095 0.0939774 7.87543L0.12735 10.5377C0.139677 11.097 0.337405 11.6364 0.68949 12.0712C1.04157 12.5059 1.52808 12.8115 2.07261 12.9398C2.60293 13.0779 3.07319 13.3864 3.41104 13.8178C3.74889 14.2493 3.93561 14.7798 3.94248 15.3278C3.94935 15.8757 3.77599 16.4108 3.44906 16.8506C3.12213 17.2904 2.65975 17.6106 2.13306 17.7619C1.59191 17.9038 1.11322 18.2214 0.772144 18.6649C0.431068 19.1083 0.246923 19.6525 0.24862 20.212L0.281993 22.8743C0.294459 23.8687 0.701472 24.8175 1.41349 25.5119C2.12551 26.2063 3.08422 26.5894 4.0787 26.577L24.0771 26.3263C25.734 26.3035 27.3141 25.6245 28.471 24.4383C29.6279 23.252 30.2671 21.6553 30.2483 19.9984ZM2.7818 22.8429L2.82696 20.1634C3.88393 19.8565 4.81011 19.2095 5.46188 18.3226C6.11365 17.4357 6.45459 16.3586 6.43182 15.2582C6.40905 14.1579 6.02385 13.0957 5.33596 12.2366C4.64806 11.3774 3.69591 10.7693 2.62715 10.5064L2.59378 7.8441C2.58963 7.5126 2.71733 7.19303 2.94879 6.95569C3.18025 6.71835 3.49652 6.58268 3.82801 6.57853L8.82762 6.51585L8.85896 9.01566C8.86311 9.34715 8.99878 9.66342 9.23612 9.89488C9.47346 10.1263 9.79303 10.254 10.1245 10.2499C10.456 10.2457 10.7723 10.1101 11.0038 9.87272C11.2352 9.63538 11.3629 9.31582 11.3588 8.98432L11.3274 6.48452L23.8264 6.32784C24.8209 6.31537 25.7796 6.69847 26.4917 7.39286C27.2037 8.08726 27.6107 9.03606 27.6232 10.0305L27.5466 10.2103C26.4961 10.5162 25.5746 11.1576 24.9226 12.0363C24.2707 12.9151 23.9243 13.983 23.9361 15.0772C23.9595 16.1859 24.3443 17.2567 25.0322 18.1265C25.7201 18.9964 26.6733 19.6177 27.7468 19.896L27.7485 20.0298C27.761 21.0242 27.3779 21.9829 26.6835 22.695C25.9891 23.407 25.0403 23.814 24.0458 23.8265L11.5468 23.9831L11.5154 21.4833C11.5113 21.1518 11.3756 20.8356 11.1383 20.6041C10.9009 20.3727 10.5814 20.245 10.2499 20.2491C9.91838 20.2533 9.60211 20.3889 9.37065 20.6263C9.13918 20.8636 9.01148 21.1832 9.01564 21.5147L9.04697 24.0145L4.04737 24.0772C3.71587 24.0813 3.3963 23.9536 3.15896 23.7221C2.92162 23.4907 2.78595 23.1744 2.7818 22.8429Z" fill="black"/>
<path d="M11.4528 16.4837L11.4214 13.9839C11.4173 13.6524 11.2816 13.3362 11.0443 13.1047C10.8069 12.8733 10.4874 12.7456 10.1559 12.7497C9.82437 12.7539 9.5081 12.8895 9.27663 13.1269C9.04517 13.3642 8.91747 13.6838 8.92163 14.0153L8.95296 16.5151C8.95712 16.8466 9.09279 17.1628 9.33013 17.3943C9.56747 17.6258 9.88704 17.7535 10.2185 17.7493C10.55 17.7452 10.8663 17.6095 11.0978 17.3721C11.3292 17.1348 11.4569 16.8152 11.4528 16.4837Z" fill="black"/>
</g>
<defs>
<clipPath id="clip0_19_238">
<rect width="30" height="30" fill="white" transform="translate(29.9976) rotate(89.2818)"/>
</clipPath>
</defs>
</svg>
