<svg width="30" height="30" viewBox="0 0 30 30" fill="none" xmlns="http://www.w3.org/2000/svg">
<g clip-path="url(#clip0_19_234)">
<path d="M15 30C12.9675 30 11.05 29.1075 9.74 27.5513C7.815 27.7725 5.83125 27.0438 4.39375 25.6075C2.9575 24.17 2.2325 22.1825 2.40625 20.155C0.8925 18.95 0 17.0325 0 15C0 12.9675 0.8925 11.05 2.45 9.74C2.23125 7.81875 2.95625 5.83125 4.39375 4.39375C5.83125 2.955 7.815 2.23125 9.845 2.40625C11.05 0.89375 12.9675 0 15 0C17.0325 0 18.95 0.8925 20.26 2.44875C22.1875 2.22875 24.1688 2.95625 25.6063 4.3925C27.0425 5.83 27.7675 7.8175 27.5938 9.845C29.1075 11.05 30 12.9675 30 15C30 17.0325 29.1075 18.95 27.55 20.26C27.7688 22.1813 27.0438 24.1688 25.6063 25.6063C24.1675 27.0438 22.18 27.7675 20.155 27.5938C18.95 29.1063 17.0325 30 15 30ZM9.84125 25.095C10.5425 25.095 11.1925 25.3963 11.6513 25.94C12.4863 26.9313 13.7063 27.5 15 27.5C16.2937 27.5 17.5137 26.9313 18.3487 25.94C18.8525 25.3413 19.5863 25.0388 20.3688 25.1025C21.6613 25.2113 22.9237 24.7525 23.8387 23.8375C24.7525 22.9237 25.2138 21.6588 25.1038 20.3675C25.0363 19.5875 25.3413 18.8513 25.9413 18.3463C26.9313 17.5125 27.5 16.2912 27.5 14.9987C27.5 13.7062 26.9313 12.485 25.9413 11.6513C25.3425 11.1475 25.0363 10.41 25.1038 9.63C25.2138 8.33875 24.7537 7.07375 23.8387 6.16C22.9237 5.24625 21.6537 4.79 20.37 4.895C19.5875 4.96625 18.8525 4.65625 18.3487 4.05875C17.5137 3.0675 16.2937 2.49875 15 2.49875C13.7063 2.49875 12.4863 3.0675 11.6513 4.05875C11.1463 4.6575 10.41 4.9575 9.63125 4.89625C8.3325 4.78375 7.07625 5.24625 6.16125 6.16125C5.2475 7.075 4.78625 8.34 4.89625 9.63125C4.96375 10.4112 4.65875 11.1475 4.05875 11.6525C3.06875 12.4862 2.5 13.7075 2.5 15C2.5 16.2925 3.06875 17.5138 4.05875 18.3475C4.6575 18.8513 4.96375 19.5888 4.89625 20.3688C4.78625 21.66 5.24625 22.925 6.16125 23.8387C7.07625 24.7537 8.3525 25.2113 9.63 25.1038C9.70125 25.0975 9.77125 25.095 9.84125 25.095ZM11.25 10C10.56 10 10 10.56 10 11.25C10 11.94 10.56 12.5 11.25 12.5C11.94 12.5 12.5 11.94 12.5 11.25C12.5 10.56 11.94 10 11.25 10ZM18.75 17.5C18.06 17.5 17.5 18.06 17.5 18.75C17.5 19.44 18.06 20 18.75 20C19.44 20 20 19.44 20 18.75C20 18.06 19.44 17.5 18.75 17.5ZM13.54 19.4438L18.54 11.9438C18.9237 11.37 18.7688 10.5925 18.1938 10.21C17.6175 9.825 16.8425 9.9825 16.46 10.5562L11.46 18.0562C11.0763 18.63 11.2312 19.4075 11.8062 19.79C12.02 19.9325 12.26 20 12.4987 20C12.9025 20 13.3 19.805 13.54 19.4438Z" fill="black"/>
</g>
<defs>
<clipPath id="clip0_19_234">
<rect width="30" height="30" fill="white"/>
</clipPath>
</defs>
</svg>
